<svg width="512" height="307" viewBox="0 0 512 307" fill="none" xmlns="http://www.w3.org/2000/svg">
<path d="M38.5868 85.6243C54.0467 61.9092 77.2733 44.3092 104.286 35.8405L160.753 18.1375C175.389 13.5492 190.503 10.6597 205.799 9.52587L286.771 3.52374C318.025 1.20703 349.385 6.26741 378.324 18.2968L434.578 41.6805C446.145 46.489 456.861 53.1318 466.314 61.353V61.353C494.952 86.2624 509.66 123.562 505.729 161.314L504.526 172.876C502.288 194.366 493.928 214.763 480.437 231.641V231.641C462.22 254.434 435.88 269.283 406.948 273.073L366.285 278.399L302.014 294.827C273.039 302.234 242.773 303.048 213.442 297.21L123.863 279.38C85.1082 271.666 52.015 246.639 34.0388 211.449L32.1433 207.739C12.2616 168.819 14.7195 122.236 38.5868 85.6243V85.6243Z" fill="#CAF2FF"/>
<rect x="120" y="69" width="300" height="168.103" rx="20" fill="#FFBA07"/>
<rect x="152.759" y="115.552" width="41.3793" height="31.8966" rx="10" fill="#D9D9D9"/>
<rect x="359.655" y="189.69" width="33.0657" height="25.9802" rx="12.9901" fill="#001AFF"/>
<rect x="369.693" y="195.594" width="33.0657" height="25.9802" rx="12.9901" fill="#FF0000"/>
<line x1="164.466" y1="115.552" x2="164.466" y2="147.448" stroke="#BEBEBE"/>
<line x1="183.431" y1="115.552" x2="183.431" y2="147.448" stroke="#BEBEBE"/>
<line x1="194.138" y1="140.19" x2="152.759" y2="140.19" stroke="#BEBEBE"/>
<line x1="194.138" y1="123.81" x2="152.759" y2="123.81" stroke="#BEBEBE"/>
<line x1="163.966" y1="132.293" x2="183.793" y2="132.293" stroke="#C5C5C5"/>
<path fill-rule="evenodd" clip-rule="evenodd" d="M395.543 86.6162C398.421 88.277 400.887 90.5648 402.759 93.3096L397.943 96.5936C396.564 94.5723 394.748 92.8876 392.629 91.6646C390.51 90.4417 388.143 89.7119 385.704 89.5295C383.264 89.3471 380.814 89.7168 378.537 90.6111C376.26 91.5054 374.213 92.9014 372.55 94.6952L368.276 90.7317C370.535 88.2956 373.314 86.4 376.406 85.1855C379.499 83.971 382.825 83.469 386.138 83.7167C389.451 83.9644 392.666 84.9554 395.543 86.6162ZM390.772 94.8824C392.408 95.8263 393.809 97.1266 394.873 98.6868L390.647 101.569C390.016 100.644 389.185 99.8729 388.215 99.3131C387.245 98.7534 386.162 98.4194 385.045 98.3359C383.929 98.2524 382.807 98.4216 381.765 98.831C380.723 99.2403 379.786 99.8791 379.025 100.7L375.274 97.2215C376.558 95.8369 378.138 94.7595 379.895 94.0692C381.653 93.3789 383.543 93.0936 385.427 93.2343C387.31 93.3751 389.137 93.9384 390.772 94.8824Z" fill="#9F7404"/>
<ellipse cx="384.655" cy="105.207" rx="3.44828" ry="3.44828" fill="#9F7404"/>
<path d="M158.789 216.432C157.68 216.432 156.724 216.11 155.92 215.467C155.116 214.824 154.498 213.897 154.066 212.687C153.643 211.468 153.431 210.016 153.431 208.332C153.431 206.656 153.643 205.213 154.066 204.003C154.498 202.793 155.116 201.866 155.92 201.223C156.724 200.58 157.68 200.258 158.789 200.258C159.898 200.258 160.85 200.58 161.645 201.223C162.449 201.866 163.063 202.793 163.486 204.003C163.918 205.213 164.134 206.656 164.134 208.332C164.134 210.016 163.918 211.468 163.486 212.687C163.063 213.897 162.449 214.824 161.645 215.467C160.85 216.11 159.898 216.432 158.789 216.432ZM158.789 213.779C159.424 213.779 159.91 213.317 160.249 212.395C160.587 211.472 160.757 210.118 160.757 208.332C160.757 206.555 160.587 205.205 160.249 204.282C159.91 203.36 159.424 202.899 158.789 202.899C158.154 202.899 157.667 203.36 157.329 204.282C156.99 205.205 156.821 206.555 156.821 208.332C156.821 210.118 156.99 211.472 157.329 212.395C157.667 213.317 158.154 213.779 158.789 213.779ZM166.47 216.241C166.233 216.241 166.059 216.153 165.949 215.975C165.847 215.797 165.797 215.509 165.797 215.112V214.731C165.797 214.333 165.847 214.045 165.949 213.867C166.059 213.69 166.233 213.601 166.47 213.601H169.478V203.457L166.406 203.914C166.152 203.914 165.966 203.711 165.847 203.305C165.737 202.89 165.682 202.459 165.682 202.01C165.682 201.841 165.733 201.705 165.835 201.604C165.936 201.494 166.08 201.422 166.266 201.388L171.89 200.347C172.077 200.347 172.276 200.406 172.487 200.525C172.707 200.643 172.817 200.766 172.817 200.893V213.601H175.229C175.466 213.601 175.64 213.694 175.75 213.88C175.86 214.058 175.915 214.341 175.915 214.731V215.112C175.915 215.501 175.86 215.789 175.75 215.975C175.64 216.153 175.466 216.241 175.229 216.241H166.47ZM178.314 216.241C178.153 216.241 178.005 216.004 177.87 215.53C177.743 215.056 177.68 214.629 177.68 214.248C177.68 214.104 177.701 213.99 177.743 213.905L183.456 206.923C184.031 206.204 184.319 205.48 184.319 204.752C184.319 204.168 184.124 203.72 183.735 203.406C183.346 203.085 182.838 202.924 182.212 202.924C181.797 202.924 181.429 202.987 181.107 203.114C180.794 203.241 180.472 203.411 180.142 203.622C180.032 203.698 179.927 203.762 179.825 203.813C179.723 203.863 179.639 203.889 179.571 203.889C179.351 203.889 179.139 203.804 178.936 203.635C178.742 203.466 178.585 203.258 178.467 203.013C178.348 202.767 178.289 202.543 178.289 202.34C178.289 201.917 178.509 201.549 178.949 201.236C179.389 200.914 179.952 200.673 180.638 200.512C181.332 200.343 182.047 200.258 182.783 200.258C183.816 200.258 184.7 200.448 185.436 200.829C186.181 201.202 186.744 201.722 187.125 202.391C187.506 203.051 187.696 203.813 187.696 204.676C187.696 205.37 187.573 206.026 187.328 206.644C187.091 207.262 186.757 207.833 186.325 208.358L182.085 213.601H187.29C187.527 213.601 187.7 213.694 187.81 213.88C187.92 214.058 187.975 214.341 187.975 214.731V215.112C187.975 215.501 187.92 215.789 187.81 215.975C187.7 216.153 187.527 216.241 187.29 216.241H178.314ZM194.729 216.432C194.078 216.432 193.371 216.368 192.609 216.241C191.847 216.114 191.192 215.911 190.641 215.632C190.1 215.353 189.829 215.001 189.829 214.578C189.829 214.426 189.888 214.21 190.007 213.931C190.125 213.652 190.269 213.406 190.438 213.195C190.616 212.974 190.785 212.864 190.946 212.864C191.048 212.864 191.242 212.936 191.53 213.08C191.936 213.283 192.347 213.453 192.762 213.588C193.185 213.715 193.667 213.779 194.209 213.779C194.886 213.779 195.428 213.588 195.834 213.207C196.24 212.818 196.443 212.276 196.443 211.582C196.443 210.82 196.236 210.249 195.821 209.868C195.406 209.479 194.734 209.284 193.803 209.284H193.168C192.931 209.284 192.757 209.195 192.647 209.018C192.546 208.84 192.495 208.556 192.495 208.167V207.748C192.495 207.359 192.546 207.075 192.647 206.898C192.757 206.711 192.931 206.618 193.168 206.618H193.599C194.319 206.618 194.886 206.449 195.301 206.111C195.715 205.772 195.923 205.319 195.923 204.752C195.923 204.185 195.766 203.741 195.453 203.419C195.148 203.089 194.7 202.924 194.107 202.924C193.599 202.924 193.185 202.975 192.863 203.076C192.541 203.169 192.224 203.292 191.911 203.445C191.818 203.495 191.729 203.538 191.644 203.571C191.568 203.605 191.5 203.622 191.441 203.622C191.297 203.622 191.137 203.525 190.959 203.33C190.781 203.127 190.629 202.89 190.502 202.619C190.375 202.348 190.311 202.112 190.311 201.908C190.311 201.544 190.514 201.24 190.921 200.994C191.327 200.749 191.86 200.567 192.52 200.448C193.189 200.321 193.913 200.258 194.691 200.258C195.622 200.258 196.435 200.419 197.129 200.74C197.831 201.062 198.369 201.523 198.741 202.124C199.122 202.717 199.312 203.415 199.312 204.219C199.312 204.981 199.122 205.654 198.741 206.237C198.369 206.813 197.857 207.236 197.205 207.507V207.596C198.077 207.926 198.733 208.446 199.173 209.157C199.613 209.86 199.833 210.685 199.833 211.633C199.833 212.615 199.617 213.47 199.185 214.197C198.754 214.917 198.153 215.471 197.383 215.861C196.612 216.241 195.728 216.432 194.729 216.432ZM220.323 216.279C219.417 216.279 218.965 216.043 218.965 215.569V213.029H213.049C212.93 213.029 212.807 212.903 212.68 212.649C212.554 212.395 212.444 212.098 212.35 211.76C212.266 211.413 212.223 211.138 212.223 210.935C212.223 210.825 212.24 210.744 212.274 210.694L218.965 200.817C219.092 200.647 219.261 200.533 219.472 200.474C219.693 200.415 219.985 200.385 220.348 200.385H220.958C221.423 200.385 221.762 200.448 221.973 200.575C222.194 200.694 222.304 200.876 222.304 201.121V210.389H223.167C223.404 210.389 223.573 210.478 223.675 210.655C223.785 210.833 223.84 211.121 223.84 211.519V211.912C223.84 212.302 223.785 212.585 223.675 212.763C223.573 212.941 223.404 213.029 223.167 213.029H222.304V215.569C222.304 216.043 221.855 216.279 220.958 216.279H220.323ZM218.965 210.389V205.222L218.876 205.196L215.588 210.389H218.965ZM229.337 216.432C228.507 216.432 227.754 216.36 227.077 216.216C226.4 216.064 225.871 215.865 225.49 215.619C225.109 215.365 224.919 215.09 224.919 214.794C224.919 214.65 224.986 214.434 225.122 214.147C225.257 213.85 225.418 213.588 225.604 213.36C225.799 213.131 225.977 213.017 226.138 213.017C226.197 213.017 226.332 213.063 226.544 213.156C226.975 213.334 227.403 213.482 227.826 213.601C228.258 213.719 228.753 213.779 229.311 213.779C230.056 213.779 230.644 213.575 231.076 213.169C231.508 212.754 231.723 212.183 231.723 211.455C231.723 210.626 231.503 210 231.063 209.576C230.632 209.153 229.912 208.942 228.905 208.942H226.455C226.133 208.942 225.913 208.874 225.795 208.738C225.676 208.603 225.617 208.375 225.617 208.053L226.049 201.337C226.066 201.024 226.146 200.8 226.29 200.664C226.434 200.52 226.671 200.448 227.001 200.448H233.653C233.89 200.448 234.059 200.537 234.161 200.715C234.271 200.893 234.326 201.181 234.326 201.578V202.175C234.326 202.488 234.271 202.717 234.161 202.861C234.059 203.004 233.89 203.076 233.653 203.076H229.096L228.867 206.301H229.451C231.279 206.301 232.68 206.686 233.653 207.456C234.635 208.218 235.126 209.521 235.126 211.366C235.126 212.56 234.846 213.537 234.288 214.299C233.729 215.052 233.01 215.598 232.13 215.937C231.258 216.267 230.327 216.432 229.337 216.432ZM242.21 216.432C241.296 216.432 240.437 216.233 239.633 215.835C238.829 215.437 238.168 214.798 237.652 213.918C237.144 213.029 236.89 211.9 236.89 210.529C236.89 207.956 237.466 205.916 238.617 204.409C239.768 202.894 240.987 201.841 242.273 201.248C243.568 200.647 244.436 200.347 244.876 200.347C245.113 200.347 245.316 200.465 245.485 200.702C245.654 200.931 245.781 201.197 245.866 201.502C245.959 201.798 246.006 202.04 246.006 202.226C246.006 202.378 245.985 202.488 245.942 202.556C245.908 202.615 245.832 202.662 245.714 202.695C244.58 203.043 243.568 203.601 242.68 204.371C241.799 205.141 241.177 206.064 240.813 207.139C241.211 206.927 241.592 206.783 241.956 206.707C242.32 206.623 242.692 206.58 243.073 206.58C243.716 206.58 244.376 206.737 245.054 207.05C245.739 207.363 246.319 207.879 246.793 208.599C247.275 209.318 247.516 210.241 247.516 211.366C247.516 212.517 247.263 213.474 246.755 214.236C246.247 214.989 245.587 215.543 244.774 215.899C243.97 216.254 243.115 216.432 242.21 216.432ZM242.248 213.779C242.595 213.779 242.912 213.681 243.2 213.487C243.496 213.283 243.729 213.008 243.898 212.661C244.068 212.306 244.152 211.904 244.152 211.455C244.152 210.761 243.97 210.215 243.606 209.818C243.251 209.42 242.747 209.221 242.096 209.221C241.537 209.221 240.944 209.403 240.318 209.767C240.301 209.987 240.293 210.334 240.293 210.808C240.293 211.849 240.471 212.606 240.826 213.08C241.19 213.546 241.664 213.779 242.248 213.779ZM251.262 216.279C250.364 216.279 249.916 216.136 249.916 215.848C249.916 215.746 249.967 215.607 250.068 215.429L255.654 203.076H249.763C249.527 203.076 249.353 202.987 249.243 202.81C249.141 202.632 249.091 202.344 249.091 201.946V201.578C249.091 201.181 249.141 200.893 249.243 200.715C249.353 200.537 249.527 200.448 249.763 200.448H258.714C258.79 200.448 258.879 200.567 258.98 200.804C259.09 201.041 259.183 201.32 259.26 201.642C259.344 201.963 259.387 202.238 259.387 202.467C259.387 202.569 259.37 202.67 259.336 202.772L253.407 215.835C253.322 216.004 253.17 216.123 252.95 216.191C252.738 216.25 252.451 216.279 252.087 216.279H251.262ZM277.3 216.432C276.064 216.432 275.036 216.22 274.215 215.797C273.402 215.365 272.801 214.794 272.412 214.083C272.023 213.372 271.828 212.577 271.828 211.696C271.828 210.689 272.044 209.847 272.475 209.17C272.907 208.493 273.457 208.028 274.126 207.774C273.593 207.418 273.178 206.982 272.882 206.466C272.594 205.95 272.45 205.302 272.45 204.524C272.45 203.762 272.636 203.059 273.009 202.416C273.381 201.765 273.94 201.244 274.684 200.855C275.429 200.457 276.339 200.258 277.414 200.258C278.362 200.258 279.187 200.436 279.889 200.791C280.592 201.147 281.129 201.625 281.502 202.226C281.883 202.827 282.073 203.483 282.073 204.194C282.073 205.074 281.904 205.772 281.565 206.288C281.235 206.796 280.753 207.219 280.118 207.558C281.768 208.294 282.594 209.746 282.594 211.912C282.594 212.657 282.412 213.376 282.048 214.07C281.684 214.756 281.104 215.323 280.308 215.772C279.513 216.212 278.51 216.432 277.3 216.432ZM277.617 206.491C278.023 206.221 278.328 205.907 278.531 205.552C278.734 205.196 278.836 204.816 278.836 204.409C278.836 203.952 278.683 203.588 278.379 203.318C278.082 203.038 277.723 202.899 277.3 202.899C276.868 202.899 276.5 203.034 276.195 203.305C275.899 203.567 275.751 203.935 275.751 204.409C275.751 204.943 275.907 205.362 276.221 205.666C276.534 205.971 276.999 206.246 277.617 206.491ZM277.249 213.779C277.664 213.779 278.019 213.677 278.315 213.474C278.62 213.271 278.844 213.013 278.988 212.699C279.14 212.378 279.217 212.052 279.217 211.722C279.217 211.163 279.094 210.71 278.848 210.363C278.611 210.008 278.307 209.729 277.934 209.526C277.562 209.322 277.063 209.107 276.436 208.878C276.03 209.174 275.721 209.53 275.51 209.945C275.306 210.359 275.205 210.876 275.205 211.493C275.205 212.187 275.383 212.742 275.738 213.156C276.102 213.571 276.606 213.779 277.249 213.779ZM286.555 216.356C286.326 216.356 286.127 216.241 285.958 216.013C285.789 215.776 285.657 215.509 285.564 215.213C285.48 214.908 285.437 214.667 285.437 214.489C285.437 214.32 285.454 214.206 285.488 214.147C285.522 214.087 285.602 214.041 285.729 214.007C286.872 213.66 287.883 213.101 288.763 212.331C289.644 211.561 290.266 210.634 290.63 209.551C290.223 209.771 289.838 209.923 289.474 210.008C289.119 210.084 288.751 210.122 288.37 210.122C287.727 210.122 287.062 209.966 286.377 209.653C285.7 209.339 285.12 208.827 284.638 208.116C284.155 207.397 283.914 206.474 283.914 205.349C283.914 204.189 284.168 203.233 284.676 202.48C285.183 201.718 285.839 201.164 286.643 200.817C287.456 200.461 288.315 200.283 289.221 200.283C290.143 200.283 291.006 200.482 291.81 200.88C292.614 201.278 293.27 201.917 293.778 202.797C294.294 203.677 294.553 204.803 294.553 206.174C294.553 208.747 293.977 210.791 292.826 212.306C291.675 213.812 290.452 214.866 289.157 215.467C287.871 216.059 287.003 216.356 286.555 216.356ZM289.335 207.482C289.876 207.482 290.473 207.304 291.125 206.948C291.142 206.72 291.15 206.373 291.15 205.907C291.15 204.858 290.972 204.1 290.617 203.635C290.262 203.161 289.792 202.924 289.208 202.924C288.852 202.924 288.527 203.026 288.23 203.229C287.943 203.423 287.714 203.698 287.545 204.054C287.375 204.401 287.291 204.799 287.291 205.247C287.291 205.941 287.469 206.487 287.824 206.885C288.188 207.283 288.692 207.482 289.335 207.482ZM301.383 216.432C300.274 216.432 299.318 216.11 298.513 215.467C297.709 214.824 297.092 213.897 296.66 212.687C296.237 211.468 296.025 210.016 296.025 208.332C296.025 206.656 296.237 205.213 296.66 204.003C297.092 202.793 297.709 201.866 298.513 201.223C299.318 200.58 300.274 200.258 301.383 200.258C302.491 200.258 303.444 200.58 304.239 201.223C305.043 201.866 305.657 202.793 306.08 204.003C306.512 205.213 306.727 206.656 306.727 208.332C306.727 210.016 306.512 211.468 306.08 212.687C305.657 213.897 305.043 214.824 304.239 215.467C303.444 216.11 302.491 216.432 301.383 216.432ZM301.383 213.779C302.017 213.779 302.504 213.317 302.843 212.395C303.181 211.472 303.35 210.118 303.35 208.332C303.35 206.555 303.181 205.205 302.843 204.282C302.504 203.36 302.017 202.899 301.383 202.899C300.748 202.899 300.261 203.36 299.923 204.282C299.584 205.205 299.415 206.555 299.415 208.332C299.415 210.118 299.584 211.472 299.923 212.395C300.261 213.317 300.748 213.779 301.383 213.779Z" fill="#9F7404"/>
</svg>
