<svg width="512" height="307" viewBox="0 0 512 307" fill="none" xmlns="http://www.w3.org/2000/svg">
<path d="M38.5868 85.6243C54.0467 61.9092 77.2733 44.3092 104.286 35.8405L160.753 18.1375C175.389 13.5492 190.503 10.6597 205.799 9.52587L286.771 3.52374C318.025 1.20703 349.385 6.26741 378.324 18.2968L434.578 41.6805C446.145 46.489 456.861 53.1318 466.314 61.353V61.353C494.952 86.2624 509.66 123.562 505.729 161.314L504.526 172.876C502.288 194.366 493.928 214.763 480.437 231.641V231.641C462.22 254.434 435.88 269.283 406.948 273.073L366.285 278.399L302.014 294.827C273.039 302.234 242.773 303.048 213.442 297.21L123.863 279.38C85.1082 271.666 52.015 246.639 34.0388 211.449L32.1433 207.739C12.2616 168.819 14.7195 122.236 38.5868 85.6243V85.6243Z" fill="#CAF2FF"/>
<path d="M209 227.5L216 224.5L225.5 222L234 221L243 220L261.5 219H284L301.5 220.5L314 223.5L324 227L326 230V234V241H317H309L296.5 242L274 246H251.5H238L224 242L214.5 237L207.5 240.5L207 237.5V232.5L207.5 229.5L209 227.5Z" fill="#756541"/>
<path d="M227.345 221.714L232.05 219.697L238.437 218.017L244.151 217.345L250.202 216.672L262.639 216H277.765L289.529 217.008L297.933 219.025L304.655 221.378L305.664 224.067L306 226.084V230.79L300.286 228.437L294.235 226.756L283.479 225.076L268.353 224.403L253.563 224.739L242.134 225.748L236.42 226.756L231.042 228.101L226.336 230.454L226 228.437V225.076L226.336 223.059L227.345 221.714Z" fill="#756541"/>
<path d="M207.5 241.5C208.483 242.81 209.792 243.84 211.298 244.485L216 246.5L217.205 247.067C222.038 249.341 227.2 250.837 232.5 251.5V251.5L242.5 253L261.5 254.5H274.136C280.368 254.5 286.591 253.999 292.744 253.001V253.001C298.904 252.002 304.975 250.508 310.896 248.535L314 247.5L325.5 242.5L326 241V237V230L317.5 233.5L308.5 236V236C297.872 239.321 286.884 241.358 275.771 242.068L269 242.5L248 241L229.5 238.5L228.05 238.244C223.37 237.418 218.815 235.992 214.5 234V234L207.5 230.5L207 233.5V238.5L207.5 241.5V241.5Z" fill="#A48D5A"/>
<path d="M226.336 230.731C226.997 231.612 227.877 232.304 228.889 232.738L231.031 233.656C231.71 233.946 232.409 234.187 233.123 234.375L238.437 235.773L244.151 236.445L250.202 237.118L262.639 237.79H277.765L280.919 237.52C286.651 237.028 292.338 236.107 297.933 234.765V234.765L304.655 232.412L305.664 229.723L306 227.706V223L300.286 225.353L294.235 227.034L283.479 228.714L268.353 229.387L253.563 229.05L242.134 228.042L236.42 227.034L236.146 226.965C232.754 226.117 229.464 224.9 226.336 223.336V223.336L226 225.353V228.714L226.336 230.731V230.731Z" fill="#A48D5A"/>
<path d="M209 95L216 98L225.5 100.5L234 101.5L243 102.5L261.5 103.5H284L301.5 102L314 99L324 95.5L326 92.5V88.5V81.5H317H309L296.5 80.5L274 76.5H251.5H238L224 80.5L214.5 85.5L207.5 82L207 85V90L207.5 93L209 95Z" fill="#756541"/>
<path d="M227.345 100.786L232.05 102.803L238.437 104.483L244.151 105.155L250.202 105.828L262.639 106.5H277.765L289.529 105.492L297.933 103.475L304.655 101.122L305.664 98.4328L306 96.416V91.7101L300.286 94.063L294.235 95.7437L283.479 97.4244L268.353 98.0966L253.563 97.7605L242.134 96.7521L236.42 95.7437L231.042 94.3992L226.336 92.0462L226 94.063V97.4244L226.336 99.4412L227.345 100.786Z" fill="#756541"/>
<path d="M207.5 81C208.483 79.6897 209.792 78.6604 211.298 78.0152L216 76L217.205 75.4329C222.038 73.1586 227.2 71.6625 232.5 71V71L242.5 69.5L261.5 68H274.136C280.368 68 286.591 68.5013 292.744 69.4989V69.4989C298.904 70.498 304.975 71.9917 310.896 73.9654L314 75L325.5 80L326 81.5V85.5V92.5L317.5 89L308.5 86.5V86.5C297.872 83.1786 286.884 81.1415 275.771 80.4322L269 80L248 81.5L229.5 84L228.05 84.2559C223.37 85.0818 218.815 86.5083 214.5 88.5V88.5L207.5 92L207 89V84L207.5 81V81Z" fill="#A48D5A"/>
<path d="M226.336 91.7689C226.997 90.888 227.877 90.1961 228.889 89.7623L231.031 88.8445C231.71 88.5536 232.409 88.3132 233.123 88.1253L238.437 86.7269L244.151 86.0546L250.202 85.3824L262.639 84.7101H277.765L280.919 84.9805C286.651 85.4718 292.338 86.3926 297.933 87.7353V87.7353L304.655 90.0882L305.664 92.7773L306 94.7941V99.5L300.286 97.1471L294.235 95.4664L283.479 93.7857L268.353 93.1134L253.563 93.4496L242.134 94.458L236.42 95.4664L236.146 95.5349C232.754 96.383 229.464 97.5999 226.336 99.1639V99.1639L226 97.1471V93.7857L226.336 91.7689V91.7689Z" fill="#A48D5A"/>
<path fill-rule="evenodd" clip-rule="evenodd" d="M292.153 98.2118C297.041 98.9525 300.717 103.164 300.253 108.087C299.838 112.486 299.106 116.798 298.067 120.93C296.358 127.725 293.854 133.898 290.697 139.098C287.539 144.298 283.791 148.423 279.666 151.237C279.598 151.283 279.531 151.329 279.463 151.375C275.668 157.537 275.54 165.188 278.918 171.404C279.168 171.569 279.418 171.739 279.666 171.915C283.791 174.83 287.539 179.102 290.697 184.488C293.854 189.874 296.358 196.267 298.067 203.304C299.087 207.506 299.811 211.887 300.23 216.357C300.713 221.516 296.696 225.849 291.534 226.305L283.655 227L266.655 227.5L249.655 227L241.776 226.305C236.614 225.849 232.597 221.516 233.08 216.357C233.498 211.887 234.223 207.506 235.243 203.304C236.952 196.267 239.456 189.874 242.613 184.488C245.77 179.102 249.519 174.83 253.644 171.915C254.245 171.49 254.852 171.096 255.465 170.731C258.241 164.386 257.574 156.89 253.405 151.073C249.374 148.263 245.71 144.198 242.613 139.098C239.456 133.898 236.952 127.725 235.243 120.93C234.187 116.733 233.448 112.35 233.038 107.878C232.594 103.046 236.138 98.8853 240.917 98.042L249.655 96.5L266.655 96L284.155 97L292.153 98.2118Z" fill="#D9D9D9"/>
<path d="M213.236 188.554C213.402 186.545 215.08 185 217.095 185V185C219.08 185 220.743 186.501 220.946 188.475L224.473 222.68C224.789 225.744 223.136 228.674 220.351 229.99L220.183 230.069C218.217 230.997 215.928 230.943 214.008 229.923V229.923C211.576 228.631 210.147 226.016 210.373 223.271L213.236 188.554Z" fill="#A48D5A"/>
<path d="M312.236 188.554C312.402 186.545 314.08 185 316.095 185V185C318.08 185 319.743 186.501 319.946 188.475L323.473 222.68C323.789 225.744 322.136 228.674 319.351 229.99L319.183 230.069C317.217 230.997 314.928 230.943 313.008 229.923V229.923C310.576 228.631 309.147 226.016 309.373 223.271L312.236 188.554Z" fill="#A48D5A"/>
<path d="M213.236 134.991C213.402 136.999 215.08 138.544 217.095 138.544V138.544C219.08 138.544 220.743 137.044 220.946 135.069L224.473 100.865C224.789 97.8001 223.136 94.87 220.351 93.5545L220.183 93.4753C218.217 92.5469 215.928 92.6008 214.008 93.6209V93.6209C211.576 94.9128 210.147 97.5284 210.373 100.273L213.236 134.991Z" fill="#A48D5A"/>
<path d="M312.236 134.991C312.402 136.999 314.08 138.544 316.095 138.544V138.544C318.08 138.544 319.743 137.044 319.946 135.069L323.473 100.865C323.789 97.8001 322.136 94.87 319.351 93.5545L319.183 93.4753C317.217 92.5469 314.928 92.6008 313.008 93.6209V93.6209C310.576 94.9128 309.147 97.5284 309.373 100.273L312.236 134.991Z" fill="#A48D5A"/>
<circle cx="217.5" cy="179.5" r="7.5" fill="#A48D5A"/>
<circle cx="316.5" cy="178.5" r="7.5" fill="#A48D5A"/>
<circle cx="217.5" cy="145.5" r="7.5" fill="#A48D5A"/>
<circle cx="316.5" cy="144.5" r="7.5" fill="#A48D5A"/>
<rect x="213" y="152" width="8" height="21" rx="4" fill="#A48D5A"/>
<rect x="312" y="151" width="8" height="21" rx="4" fill="#A48D5A"/>
<path d="M291.98 222.585C295.806 221.655 298.649 218.136 297.331 214.425C294.751 207.163 288.45 201.244 284 195.5C278.28 188.116 278.089 179.5 270 179.5C261.911 179.5 255.22 189.616 249.5 197C245.477 202.193 238.951 207.282 235.433 213.477C232.877 217.979 236.734 222.634 241.839 223.501V223.501C247.711 224.499 253.658 225 259.615 225H266.5H271.818C278.61 225 285.379 224.189 291.98 222.585V222.585Z" fill="#D39E40"/>
<path d="M274.832 153.168C276.595 151.405 277.895 149.227 279.478 147.299C283.519 142.379 289.178 141.723 282 137.5C276.28 130.116 279.089 134 271 134C262.911 134 260.269 126.616 254.549 134C252.69 136.401 251.294 137.035 250.257 137.157C245.422 137.724 249.276 144.515 252.495 148.168L254.549 150.5L261 157L264.937 160.937C265.774 161.774 267.15 161.705 267.899 160.79L271 157L274.832 153.168Z" fill="#D39E40"/>
<ellipse cx="265.5" cy="166.5" rx="0.5" ry="1.5" fill="#D39E40"/>
<ellipse cx="267.5" cy="168.5" rx="0.5" ry="1.5" fill="#D39E40"/>
<ellipse cx="266.5" cy="175" rx="0.5" ry="1" fill="#D39E40"/>
<ellipse cx="264.5" cy="172.5" rx="0.5" ry="1.5" transform="rotate(2.17444 264.5 172.5)" fill="#D39E40"/>
<ellipse cx="268.5" cy="172.5" rx="0.5" ry="1.5" transform="rotate(-9.50173 268.5 172.5)" fill="#D39E40"/>
<ellipse cx="266.5" cy="170.5" rx="0.5" ry="1.5" fill="#D39E40"/>
<ellipse cx="266.5" cy="161.5" rx="0.5" ry="1.5" fill="#D39E40"/>
<ellipse cx="267.5" cy="163.5" rx="0.5" ry="1.5" transform="rotate(-6.54789 267.5 163.5)" fill="#D39E40"/>
<path d="M243.116 105.161C242.298 103.777 240.412 103.482 239.616 104.878C239.333 105.375 239.084 105.91 238.873 106.479C238.264 108.118 237.976 110.004 238.028 112.012C238.08 114.019 238.471 116.099 239.174 118.112C239.599 119.329 240.132 120.505 240.759 121.61C241.375 122.696 242.867 122.731 243.654 121.761V121.761C244.203 121.083 244.212 120.125 243.775 119.369C243.354 118.637 242.996 117.856 242.713 117.046C242.263 115.757 242.013 114.425 241.979 113.14C241.946 111.854 242.131 110.646 242.52 109.597C242.626 109.311 242.747 109.038 242.882 108.781C243.471 107.653 243.763 106.256 243.116 105.161V105.161Z" fill="white"/>
<path d="M243.772 203.185C243.267 202.013 241.848 201.512 240.908 202.377C239.735 203.456 238.794 204.859 238.167 206.49C237.435 208.393 237.164 210.519 237.366 212.652C237.462 213.667 238.463 214.293 239.458 214.068V214.068C240.451 213.844 241.054 212.855 241.03 211.837C241.003 210.695 241.189 209.572 241.582 208.549C241.918 207.675 242.395 206.903 242.982 206.27C243.757 205.433 244.223 204.232 243.772 203.185V203.185Z" fill="white"/>
</svg>
