<svg width="512" height="321" viewBox="0 0 512 321" fill="none" xmlns="http://www.w3.org/2000/svg">
<path d="M30.1483 72.454C46.9656 51.9657 70.7031 38.3446 96.8776 34.163L143.498 26.7151L175.228 17.599C215.078 6.14996 257.502 7.3692 296.629 21.088L331.617 33.3557C345.394 38.1861 359.887 40.6534 374.486 40.6534H379.829C430.378 40.6534 475.674 71.8729 493.664 119.112V119.112C505.385 149.89 504.144 184.104 490.222 213.952L489.348 215.826C473.18 250.492 442.215 275.998 405.093 285.227L310.471 308.751C279.212 316.522 246.538 316.629 215.229 309.061L109.853 283.591C75.5187 275.292 45.8585 253.755 27.3394 223.677V223.677C17.6372 207.918 11.3088 190.319 8.75417 171.991L6.55972 156.246C2.37839 126.247 10.931 95.8662 30.1483 72.454V72.454Z" fill="#DFE6FD"/>
<rect x="191.214" y="2.56879" width="146.675" height="296.318" rx="19" transform="rotate(1.75463 191.214 2.56879)" fill="white" stroke="#839DFD" stroke-width="2"/>
<rect x="197.775" y="28.9067" width="132.737" height="234.632" transform="rotate(1.75463 197.775 28.9067)" fill="#EBEFFC" stroke="#839DFD" stroke-width="2"/>
<ellipse cx="256.465" cy="284.341" rx="9.2922" ry="9.2922" fill="#839DFD"/>
<rect x="249.169" y="17.6552" width="32.2601" height="4.52048" rx="2.26024" transform="rotate(1.75 249.169 17.6552)" fill="#839DFD"/>
<ellipse cx="243.92" cy="19.9782" rx="2.32305" ry="2.32305" fill="#839DFD"/>
<path fill-rule="evenodd" clip-rule="evenodd" d="M274.285 141.705C278.092 144.06 281.319 147.243 283.727 151.016L277.106 155.241C275.333 152.462 272.957 150.118 270.153 148.384C267.35 146.65 264.192 145.57 260.914 145.224C257.636 144.878 254.322 145.275 251.218 146.385C248.114 147.496 245.301 149.292 242.987 151.639L237.394 146.125C240.537 142.938 244.357 140.499 248.572 138.991C252.786 137.482 257.287 136.943 261.738 137.413C266.19 137.883 270.478 139.35 274.285 141.705ZM267.52 152.641C269.684 153.98 271.518 155.788 272.886 157.933L267.076 161.641C266.264 160.369 265.177 159.297 263.894 158.503C262.611 157.709 261.165 157.215 259.665 157.056C258.165 156.898 256.648 157.08 255.227 157.588C253.807 158.097 252.519 158.918 251.46 159.993L246.552 155.154C248.338 153.342 250.509 151.956 252.905 151.098C255.3 150.241 257.858 149.935 260.388 150.202C262.919 150.469 265.356 151.302 267.52 152.641Z" fill="#839DFD"/>
<ellipse cx="259.252" cy="166.33" rx="4.6461" ry="4.6461" fill="#839DFD"/>
<circle cx="278" cy="142.595" r="6" fill="#FF0000"/>
<path d="M277.27 145.88C277.09 145.693 277 145.473 277 145.22C277 144.967 277.09 144.75 277.27 144.57C277.457 144.383 277.677 144.29 277.93 144.29C278.183 144.29 278.4 144.383 278.58 144.57C278.767 144.75 278.86 144.967 278.86 145.22C278.86 145.473 278.767 145.693 278.58 145.88C278.4 146.06 278.183 146.15 277.93 146.15C277.677 146.15 277.457 146.06 277.27 145.88ZM278.96 139.17L279.23 139.57L278.35 143.65L277.46 143.74L277.15 139.49L278.96 139.17Z" fill="white"/>
</svg>
