<svg width="512" height="307" viewBox="0 0 512 307" fill="none" xmlns="http://www.w3.org/2000/svg">
<path d="M38.5868 85.6243C54.0467 61.9092 77.2733 44.3092 104.286 35.8405L160.753 18.1375C175.389 13.5492 190.503 10.6597 205.799 9.52587L286.771 3.52374C318.025 1.20703 349.385 6.26741 378.324 18.2968L434.578 41.6805C446.145 46.489 456.861 53.1318 466.314 61.353V61.353C494.952 86.2624 509.66 123.562 505.729 161.314L504.526 172.876C502.288 194.366 493.928 214.763 480.437 231.641V231.641C462.22 254.434 435.88 269.283 406.948 273.073L366.285 278.399L302.014 294.827C273.039 302.234 242.773 303.048 213.442 297.21L123.863 279.38C85.1082 271.666 52.015 246.639 34.0388 211.449L32.1433 207.739C12.2616 168.819 14.7195 122.236 38.5868 85.6243V85.6243Z" fill="#CAF2FF"/>
<path d="M230.488 197L232.783 242.684C232.901 245.032 231.029 247 228.678 247V247C226.198 247 224.283 244.82 224.602 242.361L230.488 197Z" fill="white"/>
<path d="M302.488 196L304.783 241.684C304.901 244.032 303.029 246 300.678 246V246C298.198 246 296.283 243.82 296.602 241.361L302.488 196Z" fill="white"/>
<path d="M360.488 187L362.711 219.75C362.868 222.049 361.044 224 358.74 224V224C356.266 224 354.391 221.768 354.819 219.332L360.488 187Z" fill="white"/>
<path d="M324.605 187L325.88 212.601C325.945 213.906 324.905 215 323.598 215V215C322.22 215 321.156 213.79 321.332 212.423L324.605 187Z" fill="white"/>
<path d="M209.605 183L210.88 208.601C210.945 209.906 209.905 211 208.598 211V211C207.22 211 206.156 209.79 206.332 208.423L209.605 183Z" fill="white"/>
<path d="M156.605 196L157.88 221.601C157.945 222.906 156.905 224 155.598 224V224C154.22 224 153.156 222.79 153.332 221.423L156.605 196Z" fill="white"/>
<path d="M179.488 183L181.783 228.684C181.901 231.032 180.029 233 177.678 233V233C175.198 233 173.283 230.82 173.602 228.361L179.488 183Z" fill="white"/>
<path d="M265.264 180H281L267.041 204.873L273.64 202.843L261.136 231.269L270.086 230L231 281.015L254.283 235.33L246.228 238.629L257.075 210.964L250.036 212.995L265.264 180Z" fill="#F7C219"/>
<path fill-rule="evenodd" clip-rule="evenodd" d="M227.247 42.7434C236.168 29.7973 253.651 21 273.76 21C299.838 21 321.501 35.7955 325.797 55.2477C349.949 56.4115 370.092 73.6719 376.681 97.0274C393.702 102.585 406 118.59 406 137.467C406 160.958 386.958 180 363.468 180H170.532C147.042 180 128 160.958 128 137.467C128 116.915 142.577 99.7677 161.956 95.8C161.852 94.5956 161.799 93.3792 161.799 92.1525C161.799 64.7108 188.281 42.465 220.948 42.465C223.076 42.465 225.178 42.5594 227.247 42.7434Z" fill="white"/>
</svg>
