<svg width="512" height="307" viewBox="0 0 512 307" fill="none" xmlns="http://www.w3.org/2000/svg">
<path d="M38.5868 85.6243C54.0467 61.9092 77.2733 44.3092 104.286 35.8405L160.753 18.1375C175.389 13.5492 190.503 10.6597 205.799 9.52587L286.771 3.52374C318.025 1.20703 349.385 6.26741 378.324 18.2968L434.578 41.6805C446.145 46.489 456.861 53.1318 466.314 61.353V61.353C494.952 86.2624 509.66 123.562 505.729 161.314L504.526 172.876C502.288 194.366 493.928 214.763 480.437 231.641V231.641C462.22 254.434 435.88 269.283 406.948 273.073L366.285 278.399L302.014 294.827C273.039 302.234 242.773 303.048 213.442 297.21L123.863 279.38C85.1082 271.666 52.015 246.639 34.0388 211.449L32.1433 207.739C12.2616 168.819 14.7195 122.236 38.5868 85.6243V85.6243Z" fill="#CAF2FF"/>
<path d="M18.9868 149.5L26.4556 149.107C34.0517 148.708 41.6388 150.046 48.6393 153.022L54.5093 155.516C56.8331 156.504 59.0787 157.666 61.227 158.993L73.2959 166.447C85.2147 173.809 99.6751 175.833 113.157 172.026L124.962 168.693C131.2 166.932 136.834 163.488 141.246 158.739V158.739C149.497 149.859 161.724 145.828 173.639 148.06L195.435 152.145C198.472 152.714 201.555 153 204.644 153L234.5 153" stroke="black" stroke-width="10"/>
<path d="M290.038 150.4L320.031 144.634C325.995 143.488 331.7 141.265 336.867 138.073L344.347 133.453C356.266 126.091 370.727 124.067 384.209 127.874L396.013 131.207C402.252 132.969 407.885 136.412 412.298 141.161V141.161C420.549 150.042 432.776 154.073 444.691 151.84L466.487 147.756C469.523 147.187 472.606 146.9 475.696 146.9L505.552 146.9" stroke="black" stroke-width="10"/>
<path d="M245.5 152C245.5 159.18 242.06 165 233.5 165C224.94 165 218 159.18 218 152C218 144.82 224.94 139 233.5 139C242.06 139 245.5 144.82 245.5 152Z" fill="black"/>
<path d="M266 152C266 159.18 269.44 165 278 165C286.56 165 293.5 159.18 293.5 152C293.5 144.82 286.56 139 278 139C269.44 139 266 144.82 266 152Z" fill="black"/>
<path d="M245.5 152C245.5 159.18 241.851 165 235.5 165C229.149 165 225.5 159.18 225.5 152C225.5 144.82 229.149 139 235.5 139C241.851 139 245.5 144.82 245.5 152Z" fill="#686262"/>
<path d="M266 152C266 159.18 269.649 165 276 165C282.351 165 286 159.18 286 152C286 144.82 282.351 139 276 139C269.649 139 266 144.82 266 152Z" fill="#686262"/>
<rect x="233" y="150" width="2" height="4" rx="1" fill="black"/>
<rect x="274" y="153" width="2" height="7" rx="1" transform="rotate(-90 274 153)" fill="black"/>
<path d="M274 153C273.448 153 273 152.552 273 152V152C273 151.448 273.448 151 274 151H278V153H274Z" fill="#BEBEBE"/>
<rect x="238" y="151" width="2" height="3" rx="1" fill="black"/>
<rect x="267" y="153" width="2" height="5" rx="1" transform="rotate(-90 267 153)" fill="black"/>
<path d="M266 153C265.448 153 265 152.552 265 152V152C265 151.448 265.448 151 266 151H270V153H266Z" fill="#BEBEBE"/>
</svg>
